<?xml version="1.0" encoding="UTF-8" standalone="no"?>
<!-- Created with Inkscape (http://www.inkscape.org/) -->

<svg
   version="1.1"
   id="svg2"
   width="341.31281"
   height="130.26585"
   viewBox="0 0 341.31281 130.26585"
   xmlns="http://www.w3.org/2000/svg"
   xmlns:svg="http://www.w3.org/2000/svg">
  <defs
     id="defs6" />
  <g
     id="g10"
     transform="matrix(1.3333333,0,0,-1.3333333,-70.6312,130.39373)">
    <path
       d="m 84.4637,37.8587 c 0,0 4.6975,20.1067 0.6409,29.285 0,0 9.6086,-1.967 7.4729,-12.2383 -2.135,-10.2711 -1.9213,-18.358 -8.1138,-17.0467 z m -16.2278,-23.821 23.915,21.6355 1.0676,-2.1847 c 0,0 -11.3171,-20.9812 -28.1858,-28.1925 l -5.9794,6.9933 c 0,0 6.406,13.3308 6.192,18.5763 0,0 9.1826,1.0925 2.9906,-16.8279 z m 29.0398,7.867 7.901,17.265 8.3273,-8.0858 c 0,0 -11.1038,-8.5232 -16.2283,-9.1792 z m 37.5812,24.9146 c 0,0 7.4743,-1.9673 11.5313,6.9936 0,0 7.9004,19.4508 7.9004,23.8215 0,0 4.2707,0.6554 3.4163,-8.5243 l -3.8432,-10.2708 c 0,0 10.2495,6.3374 9.8224,12.4571 0,0 7.2603,0.8745 1.7081,-11.8012 l -19.004,-16.8278 -3.2032,-17.0473 5.1248,4.8084 c 0,0 -0.2132,12.894 4.0567,15.5163 0,0 8.755,0.8745 7.0469,-11.3644 0,0 -2.776,-4.1519 -4.4839,-6.3374 l 0.6401,-25.7885 -10.2495,6.5566 -5.7651,-9.8348 -5.5517,6.3374 c 0,0 13.239,7.2122 14.0933,13.9875 l -0.2134,3.9342 -6.4069,-5.9011 -5.5516,4.589 6.1925,17.7023 c 0,0 -8.9679,3.934 -7.2603,6.9937 z M 156.6374,19.938 c 0,0 13.4524,2.6227 11.7442,-8.3046 L 166.46,9.4476 Z m 47.6175,26.2253 c 0,0 -2.7757,-8.96 2.5625,-3.9336 l 6.4066,5.682 -2.3496,5.0264 c 0,0 0.4275,5.0273 4.6981,1.5299 l 4.057,-3.4971 5.1247,4.3722 3.4164,-3.2786 -8.7546,-8.3049 c 0,0 0.6401,-7.8673 -14.5202,-26.2253 0,0 -8.3276,-12.6757 -15.1608,-12.0206 v 1.7487 c 0,0 9.3955,3.0597 17.7236,26.8815 0,0 -10.0366,-4.1528 -5.9794,10.4904 0,0 0.8544,4.1519 2.7757,1.529 z m 19.4318,-19.669 c 0,0 4.6973,-10.7084 0.4275,-16.8282 0,0 6.4054,1.3113 8.1133,9.1798 1.7084,7.8672 -6.6189,7.6484 -8.5408,7.6484 z m 30.1085,51.3581 c 0,0 2.5622,-9.1789 8.1133,-2.4041 l 7.6876,8.305 c 0,0 1.0672,3.9333 5.9791,3.9333 0.8541,0.8751 10.0358,8.5238 10.0358,8.5238 0,0 8.9685,3.7151 6.6194,-5.2452 -2.3488,-8.9603 -15.3742,-29.0662 -25.8378,-38.0271 0,0 12.8123,10.0531 12.3852,3.06 -1.495,-8.7423 -6.4058,-16.3907 -1.0676,-16.8284 0,0 8.7543,-0.4365 9.6092,-7.4299 0,0 9.8218,1.9664 16.0146,-6.5568 l -4.6973,-3.9339 c 0,0 -1.7087,4.8087 -10.0363,3.9339 0,0 4.0569,-21.6357 -8.9688,-22.2917 -13.239,4.5899 -23.4882,7.4308 -26.0504,13.7682 0,0 5.5519,13.769 28.8269,15.2986 0,0 0,3.7151 -12.812,3.2782 0,0 -3.6298,-1.3113 -2.3494,3.06 l 2.7765,10.7082 c 0,0 -10.8901,-14.4241 -12.3848,-7.2125 l 0.2134,6.3386 c 0,0 19.645,21.6354 27.1182,42.616 0,0 -4.911,-2.8408 -5.9785,-5.4635 0,0 2.5622,-6.3374 -4.9119,-5.4637 0,0 -1.9213,0 -2.3485,1.5301 0,0 -15.8011,-24.2592 -17.5099,-13.331 0,0 -1.7076,5.4635 -0.426,9.8339 z m 9.3951,-64.4706 c 0,0 12.3849,13.1125 20.285,10.2713 0,0 4.0576,-14.2055 -6.8326,-13.5496 -10.8901,0.6557 -13.4524,3.2783 -13.4524,3.2783"
       style="fill:#000000;fill-opacity:1;fill-rule:evenodd;stroke:none"
       id="path12" />
    <path
       d="m 29.6748,73.4258 c 12.0506,0 21.8798,-10.1208 21.8798,-22.5292 0,-12.4086 -9.8292,-22.5295 -21.8798,-22.5295 -12.051,0 -21.8801,10.1209 -21.8801,22.5295 0,12.4084 9.8291,22.5292 21.8801,22.5292 z m 0,-1.5324 c 11.2311,0 20.3916,-9.4323 20.3916,-20.9968 0,-11.5648 -9.1605,-20.997 -20.3916,-20.997 -11.2315,0 -20.3919,9.4322 -20.3919,20.997 0,11.5645 9.1604,20.9968 20.3919,20.9968"
       style="fill:#231916;fill-opacity:1;fill-rule:evenodd;stroke:none"
       id="path14" />
    <path
       d="m 29.5668,65.895 c 8.0501,0 14.5757,-6.7192 14.5757,-15.0083 0,-8.2888 -6.5256,-15.008 -14.5757,-15.008 -8.0499,0 -14.5755,6.7192 -14.5755,15.008 0,8.2891 6.5256,15.0083 14.5755,15.0083 z"
       style="fill:none;stroke:#231916;stroke-width:0.8504;stroke-linecap:butt;stroke-linejoin:miter;stroke-miterlimit:22.9256;stroke-dasharray:none;stroke-opacity:1"
       id="path16" />
    <path
       d="m 42.6283,59.745 c 0,0 0.9394,-0.3127 1.0258,-0.9204 0,0 -0.5394,-0.7764 -0.8076,-0.0573 -0.2681,0.7186 -0.2182,0.9777 -0.2182,0.9777 z m 2.6937,2.9489 c 0,0 -0.3498,-0.4978 0.112,-0.6055 l 0.591,-0.1877 c 0,0 0.2095,0.0757 0.3439,-0.2381 0.0634,-0.0227 0.665,-0.3297 0.665,-0.3297 0,0 0.4161,-0.4368 -0.0587,-0.6134 -0.4743,-0.1763 -1.7518,-0.0785 -2.4486,0.2622 0,0 0.811,-0.4507 0.4794,-0.678 -0.4411,-0.2237 -0.9258,-0.1891 -0.8,-0.5454 0,0 0.22,-0.5743 -0.0765,-0.8841 0,0 0.3591,-0.5548 0.1386,-1.2606 l -0.3087,0.1565 c 0,0 0.1732,0.284 -0.0947,0.7838 0,0 -0.8798,-1.0477 -1.2665,-0.2407 -0.1525,1.0122 -0.303,1.7697 -0.0831,2.164 0,0 0.7821,0.1477 1.4899,-1.2816 0,0 0.1701,0.1358 -0.2012,0.9369 0,0 -0.1593,0.1837 0.0759,0.2616 l 0.5661,0.2132 c 0,0 -0.9581,0.1689 -0.6689,0.5272 l 0.2956,0.2172 c 0,0 1.5287,-0.4646 2.6938,-0.1769 0,0 -0.2648,0.2097 -0.4136,0.1822 0,0 -0.2203,-0.3943 -0.385,0.1143 0,0 -0.0527,0.1227 0.0057,0.2058 0,0 -1.5432,0.1238 -1.0896,0.631 0,0 0.2029,0.3078 0.4382,0.3858"
       style="fill:#231916;fill-opacity:1;fill-rule:evenodd;stroke:none"
       id="path18" />
    <path
       d="m 37.8774,67.1445 c 0,0 0.2004,-0.8223 -0.1766,-1.2021 0,0 0.4691,0.0105 0.6863,0.5476 0.2171,0.5375 -0.3742,0.6296 -0.5097,0.6545 z m -1.1327,1.6495 c 0,0 -0.3053,-0.6012 0.1332,-0.3126 l 0.5224,0.3208 -0.1043,0.3878 c 0,0 0.0918,0.3521 0.3512,0.0482 l 0.2435,-0.301 0.4156,0.2443 0.2012,-0.2772 -0.7205,-0.4774 c 0,0 -0.0511,-0.5672 -1.3476,-1.6769 0,0 -0.7438,-0.7935 -1.2192,-0.6583 l 0.0218,0.1239 c 0,0 0.7016,0.0964 1.5817,1.6824 0,0 -0.7596,-0.1656 -0.2933,0.8232 0,0 0.1111,0.2843 0.2143,0.0728"
       style="fill:#231916;fill-opacity:1;fill-rule:evenodd;stroke:none"
       id="path20" />
    <path
       d="m 23.902,66.8293 c 0,0 0.9655,0.1894 0.8425,-0.6001 l -0.1378,-0.1576 z m -1.5633,1.9409 c 0,0 0.5366,-0.142 0.8274,0.5051 0,0 0.567,1.4043 0.567,1.7204 0,0 0.3064,0.047 0.2455,-0.6157 l -0.2761,-0.7418 c 0,0 0.7358,0.4578 0.7055,0.8994 0,0 0.521,0.0632 0.1222,-0.8521 l -1.3641,-1.2152 -0.2298,-1.2308 0.3676,0.347 c 0,0 -0.015,0.9314 0.2914,1.1208 0,0 0.6287,0.0629 0.506,-0.8215 0,0 -0.1993,-0.2993 -0.3223,-0.4569 l 0.0459,-1.8621 -0.7353,0.4734 -0.4139,-0.7101 -0.3985,0.4575 c 0,0 0.9502,0.5207 1.0117,1.0103 l -0.0156,0.284 -0.4595,-0.4266 -0.3986,0.3316 0.4445,1.2785 c 0,0 -0.6437,0.284 -0.521,0.5048"
       style="fill:#231916;fill-opacity:1;fill-rule:evenodd;stroke:none"
       id="path22" />
    <path
       d="m 15.4114,60.2986 -0.4844,1.2832 0.8229,0.0423 c 0,0 -0.118,-1.0191 -0.3385,-1.3255 z m -1.04,-1.9446 0.0876,2.3573 0.1635,-0.0522 c 0,0 0.504,-1.6511 0.0335,-2.9123 l -0.6514,0.0289 c 0,0 -0.3583,1.0075 -0.635,1.2569 0,0 0.3994,0.5457 1.0018,-0.6786 z m -0.4045,2.0549 c 0,0 -0.7872,1.2537 -1.4536,1.4944 0,0 0.576,0.4158 0.991,-0.2104 0.4152,-0.6267 0.8362,-1.0184 0.4626,-1.284"
       style="fill:#231916;fill-opacity:1;fill-rule:evenodd;stroke:none"
       id="path24" />
    <path
       d="m 19.3915,51.0789 4.1071,8.4912 2.7559,-2.5776 3.5875,6.9239 3.1198,-6.4184 1.5075,2.6787 5.0437,-10.0579 -1.9239,-0.0507 -3.0155,6.2166 -0.7801,-0.6066 2.1317,-5.4079 -2.3395,-0.0508 -3.6915,9.4513 -4.4717,-8.7437 -1.9239,0.2026 1.7677,4.2962 -1.0916,1.0106 -2.6512,-5.4082 c 0,0 -2.1762,-0.0411 -2.132,0.0507 z"
       style="fill:#231916;fill-opacity:1;fill-rule:evenodd;stroke:#231916;stroke-width:0.216;stroke-linecap:butt;stroke-linejoin:miter;stroke-miterlimit:22.9256;stroke-dasharray:none;stroke-opacity:1"
       id="path26" />
    <path
       d="m 26.0317,48.7752 c 0.3943,-0.4147 1.1225,-0.6945 1.9522,-0.6945 0.2948,0 0.5766,0.036 0.8351,0.1001 v 2.5146 l -1.3887,0.0459 0.18,0.3087 h -0.0108 l 0.9065,1.5948 H 17.2834 v 1.7699 h 12.2737 l 0.0468,1.8437 1.2076,0.0589 v -1.9026 h 1.3351 l -0.9068,-1.5945 h 9.4337 V 51.05 h -9.006 l 0.0499,-0.1911 0.1143,-3.1101 c 0.0943,-0.0077 0.1913,-0.0114 0.2891,-0.0114 0.8705,0 1.6282,0.2427 2.0069,0.6917 l 0.347,0.3248 c 0.3943,-0.4147 1.233,-1.0165 2.0627,-1.0165 0.8706,0 1.6288,0.3076 2.0073,0.7563 l 0.1777,-0.0057 c 0.3946,-0.4141 1.1225,-0.6933 1.9522,-0.6933 0.8703,0 1.6282,0.3075 2.0069,0.7557 0.1985,-0.2084 0.3133,-0.4516 0.3133,-0.7107 0,-0.7732 -1.0174,-1.4042 -2.2643,-1.4042 -0.9026,0 -1.6852,0.3308 -2.0484,0.8064 -0.3421,-0.5062 -1.1503,-0.8634 -2.0888,-0.8634 -1.0752,0 -1.9794,0.4691 -2.2088,1.0944 -0.2284,-0.6253 -1.1327,-1.0944 -2.2076,-1.0944 -1.0431,0 -1.9247,0.4408 -2.1861,1.0378 -0.3943,-0.4145 -1.1219,-0.6937 -1.9513,-0.6937 -0.9788,0 -1.8165,0.3886 -2.1311,0.9303 -0.1877,-0.6579 -1.1166,-1.1602 -2.2292,-1.1602 -0.9547,0 -1.7753,0.3702 -2.1073,0.891 -0.3889,-0.4281 -1.1282,-0.7189 -1.974,-0.7189 -1.2467,0 -2.2638,0.6307 -2.2638,1.4046 0,0.233 0.093,0.4543 0.2563,0.648 0.3946,-0.4145 1.1219,-0.6937 1.9514,-0.6937 0.8461,0 1.5857,0.2903 1.974,0.7183 0.3322,-0.5201 1.1523,-0.8903 2.1073,-0.8903 1.1914,0 1.578,0.2948 2.4086,0.9235 z m -9.872,-3.7826 H 42.9948 L 42.5007,43.7695 H 16.6533 Z"
       style="fill:#231916;fill-opacity:1;fill-rule:evenodd;stroke:#231916;stroke-width:0.216;stroke-linecap:butt;stroke-linejoin:miter;stroke-miterlimit:22.9256;stroke-dasharray:none;stroke-opacity:1"
       id="path28" />
    <path
       d="m 10.5024,49.343 0.1207,-0.3615 c -0.1403,-0.0538 -0.2477,-0.125 -0.324,-0.2123 -0.0774,-0.0878 -0.1275,-0.2063 -0.1522,-0.3546 -0.0241,-0.1497 -0.0153,-0.3084 0.0255,-0.4765 0.036,-0.1494 0.0893,-0.275 0.1599,-0.3784 0.0714,-0.1035 0.1505,-0.1735 0.2389,-0.2101 0.0893,-0.0365 0.1778,-0.0436 0.2665,-0.0209 0.0901,0.0232 0.1621,0.07 0.2166,0.142 0.0544,0.0708 0.0893,0.1743 0.1048,0.3092 0.0111,0.0876 0.0151,0.2744 0.0128,0.563 -0.002,0.2877 0.0113,0.4938 0.0411,0.6171 0.0374,0.1593 0.1015,0.2874 0.1911,0.3849 0.0895,0.0959 0.2001,0.1611 0.3328,0.1948 0.1442,0.0371 0.2902,0.0295 0.4365,-0.0221 0.1474,-0.0525 0.273,-0.1522 0.3778,-0.2977 0.1041,-0.1465 0.1806,-0.3189 0.2285,-0.5173 0.0536,-0.22 0.0663,-0.4215 0.0383,-0.6075 -0.0284,-0.1851 -0.0978,-0.3395 -0.2089,-0.464 -0.112,-0.1236 -0.2509,-0.2114 -0.4176,-0.2613 l -0.119,0.3685 c 0.1769,0.0666 0.2982,0.1703 0.3622,0.3104 0.065,0.1408 0.0692,0.3237 0.0142,0.5507 -0.0572,0.2373 -0.1412,0.3986 -0.2517,0.4859 -0.11,0.0864 -0.2256,0.1151 -0.3438,0.0842 -0.1038,-0.0267 -0.1792,-0.0868 -0.2268,-0.1806 -0.0485,-0.0924 -0.0692,-0.3067 -0.0621,-0.6423 0.0071,-0.3362 -8e-4,-0.5701 -0.0241,-0.7024 -0.0363,-0.1919 -0.1032,-0.3442 -0.2013,-0.4564 -0.0983,-0.1126 -0.2247,-0.1882 -0.3784,-0.2276 -0.1533,-0.0394 -0.3078,-0.0315 -0.4651,0.0238 -0.1568,0.0558 -0.2931,0.1581 -0.4094,0.3072 -0.1162,0.1494 -0.1998,0.3303 -0.2508,0.5409 -0.0647,0.2682 -0.0814,0.5026 -0.0488,0.7024 0.0315,0.2004 0.1111,0.3716 0.2384,0.5139 0.1267,0.1421 0.286,0.2404 0.4774,0.2946 z m -0.1557,-3.348 2.7451,1.1418 0.1468,-0.3745 -1.1273,-0.4689 0.5766,-1.4689 1.1276,0.4686 0.1465,-0.3742 -2.7453,-1.142 -0.1468,0.3744 1.2937,0.5386 -0.5766,1.4686 -1.2931,-0.538 z m 1.0378,-2.7026 3.1331,0.5102 0.2109,-0.3764 -1.9587,-2.605 -0.2234,0.3985 0.6041,0.7693 -0.6188,1.1044 -0.9388,-0.1726 z m 1.4803,-0.1358 0.5023,-0.8954 0.555,0.6979 c 0.1684,0.2114 0.3107,0.3798 0.4269,0.5028 -0.1837,-0.0638 -0.3731,-0.1134 -0.5701,-0.1485 z m 0.1542,-2.7629 2.3011,1.9191 0.2529,-0.3215 -0.8283,-2.7507 1.8071,1.506 0.2364,-0.3007 -2.3012,-1.9191 -0.2528,0.322 0.8294,2.7519 -1.8085,-1.5072 z m 3.8327,-2.6257 0.2364,0.2616 0.9184,-0.879 -0.7483,-0.8269 c -0.2464,0.0187 -0.4697,0.0717 -0.6724,0.1568 -0.2024,0.0859 -0.3827,0.2044 -0.54,0.3552 -0.2126,0.2046 -0.3637,0.4371 -0.4524,0.6973 -0.089,0.2605 -0.0972,0.5224 -0.0252,0.7846 0.0717,0.2631 0.2069,0.5034 0.4053,0.7228 0.1962,0.2172 0.4244,0.3773 0.6826,0.4802 0.2585,0.1041 0.5119,0.1222 0.7602,0.0545 0.2478,-0.0681 0.4797,-0.2053 0.6951,-0.4128 0.1562,-0.1499 0.2747,-0.3118 0.3535,-0.4861 0.0796,-0.1729 0.1134,-0.3407 0.1003,-0.5034 -0.0124,-0.1622 -0.0683,-0.3362 -0.1664,-0.5228 l -0.3248,0.1755 c 0.0697,0.1449 0.1108,0.273 0.1213,0.3838 0.0108,0.1117 -0.011,0.2296 -0.0658,0.3544 -0.0541,0.1247 -0.136,0.2403 -0.2449,0.3452 -0.1309,0.1259 -0.2633,0.2137 -0.396,0.2642 -0.1326,0.051 -0.2582,0.0709 -0.3778,0.0604 -0.1188,-0.0108 -0.2305,-0.0403 -0.3365,-0.0896 -0.1797,-0.0848 -0.343,-0.2072 -0.489,-0.3691 -0.1803,-0.199 -0.297,-0.3968 -0.352,-0.5944 -0.0547,-0.1978 -0.0477,-0.39 0.0207,-0.5771 0.0683,-0.1868 0.1734,-0.3487 0.3157,-0.4856 0.125,-0.1199 0.2685,-0.2115 0.4309,-0.275 0.1627,-0.0649 0.2993,-0.098 0.4116,-0.1006 l 0.3761,0.4156 z m 0.7021,-2.2791 1.5693,2.5858 0.8648,-0.5565 c 0.1953,-0.1255 0.3362,-0.2344 0.4247,-0.3248 0.123,-0.1264 0.208,-0.2679 0.2557,-0.4224 0.062,-0.2001 0.0722,-0.4113 0.0291,-0.633 -0.0433,-0.2213 -0.1343,-0.447 -0.2743,-0.678 -0.1191,-0.1962 -0.2467,-0.356 -0.3839,-0.4785 -0.1366,-0.1236 -0.2698,-0.2123 -0.4002,-0.2667 -0.1298,-0.0545 -0.2531,-0.0842 -0.3708,-0.0868 -0.1168,-0.0045 -0.2432,0.0162 -0.3778,0.0621 -0.1355,0.0465 -0.279,0.1182 -0.4301,0.2157 z m 0.5173,0.0916 0.5364,-0.3447 c 0.1652,-0.1066 0.305,-0.1749 0.4189,-0.2035 0.1131,-0.0287 0.2149,-0.0318 0.3062,-0.0108 0.1281,0.03 0.2557,0.1 0.3826,0.2086 0.127,0.1086 0.2501,0.2599 0.3685,0.4558 0.1639,0.2702 0.2464,0.5057 0.2489,0.7061 0.002,0.201 -0.0439,0.3657 -0.1372,0.4944 -0.0674,0.0927 -0.2007,0.203 -0.3974,0.3294 l -0.5284,0.3396 z m 2.6354,-0.3906 c 0.1999,0.4629 0.4765,0.7693 0.8311,0.9192 0.3541,0.1517 0.7215,0.1395 1.1036,-0.0354 0.2491,-0.114 0.4481,-0.2792 0.5952,-0.4932 0.1472,-0.2152 0.2262,-0.4567 0.2362,-0.7248 0.0105,-0.2674 -0.0454,-0.5412 -0.1656,-0.819 -0.1219,-0.2832 -0.2863,-0.5105 -0.4935,-0.6823 -0.2069,-0.172 -0.4371,-0.269 -0.6891,-0.2905 -0.2531,-0.0216 -0.4966,0.0215 -0.7316,0.129 -0.2548,0.117 -0.4553,0.284 -0.6001,0.5031 -0.1463,0.2186 -0.2234,0.4615 -0.2322,0.7279 -0.0082,0.2659 0.0403,0.5213 0.146,0.766 z m 0.3668,-0.1752 c -0.1457,-0.3359 -0.172,-0.6401 -0.0805,-0.9131 0.0921,-0.2741 0.2702,-0.4716 0.5346,-0.5924 0.2696,-0.1233 0.5332,-0.1281 0.7917,-0.0128 0.258,0.1157 0.4652,0.3527 0.6203,0.7113 0.098,0.2259 0.1457,0.4407 0.1445,0.6446 -0.0014,0.2032 -0.0533,0.3843 -0.1562,0.5431 -0.1037,0.1587 -0.2434,0.2789 -0.4217,0.3608 -0.254,0.1157 -0.5106,0.1267 -0.7708,0.0306 -0.2605,-0.0952 -0.481,-0.3529 -0.6619,-0.7721 z m 2.2595,-2.6294 0.7659,2.9443 0.3887,-0.1069 0.9003,-2.7263 0.6015,2.3116 0.3628,-0.0997 -0.7662,-2.945 -0.3881,0.1069 -0.9,2.7284 -0.6023,-2.3134 z m 4.5964,0.248 0.0431,0.3543 1.2444,-0.1556 -0.1335,-1.1222 c -0.2103,-0.1327 -0.421,-0.2257 -0.6338,-0.2795 -0.2129,-0.0533 -0.4261,-0.0664 -0.6393,-0.0394 -0.2888,0.036 -0.5436,0.1332 -0.7642,0.2905 -0.2208,0.1562 -0.3767,0.3637 -0.4683,0.6191 -0.0921,0.256 -0.1204,0.5329 -0.0847,0.83 0.0348,0.2948 0.1278,0.5618 0.2781,0.8019 0.1493,0.2404 0.3449,0.4085 0.5839,0.5037 0.239,0.095 0.5051,0.1245 0.798,0.087 0.212,-0.0266 0.4002,-0.0858 0.5635,-0.1788 0.1633,-0.0919 0.2866,-0.2078 0.3685,-0.347 0.0825,-0.1389 0.1369,-0.3132 0.1638,-0.5235 l -0.3628,-0.0545 c -0.0258,0.1593 -0.0666,0.2875 -0.1208,0.3841 -0.0552,0.0961 -0.1406,0.1783 -0.2562,0.2464 -0.1145,0.0686 -0.2469,0.1122 -0.3946,0.1312 -0.178,0.0224 -0.3356,0.0136 -0.4714,-0.0258 -0.1363,-0.0388 -0.2492,-0.0989 -0.3402,-0.18 -0.0904,-0.0811 -0.1638,-0.1721 -0.2211,-0.2761 -0.0969,-0.1774 -0.1587,-0.3753 -0.1851,-0.5944 -0.0317,-0.2696 -0.0139,-0.5012 0.055,-0.6939 0.0683,-0.1934 0.184,-0.345 0.3461,-0.4544 0.1613,-0.1097 0.3393,-0.1778 0.533,-0.2018 0.1686,-0.0216 0.3373,-0.0086 0.5051,0.0382 0.1686,0.0459 0.2982,0.1018 0.39,0.1675 l 0.0672,0.5639 z m 5.2877,2.1353 0.3867,0.0698 0.2968,-1.7351 c 0.0516,-0.3008 0.0592,-0.5471 0.0232,-0.7365 -0.0363,-0.1893 -0.1309,-0.3554 -0.2849,-0.498 -0.1539,-0.1432 -0.3713,-0.2395 -0.6522,-0.2906 -0.273,-0.0499 -0.5051,-0.0422 -0.6951,0.0236 -0.1905,0.0652 -0.3387,0.1831 -0.4442,0.3532 -0.1063,0.1706 -0.1856,0.4138 -0.2401,0.7319 l -0.2973,1.7353 0.3861,0.0703 0.2965,-1.7331 c 0.0445,-0.2608 0.1012,-0.4487 0.1689,-0.5632 0.0681,-0.1154 0.1661,-0.1956 0.2914,-0.2424 0.1264,-0.0462 0.2727,-0.0538 0.438,-0.0235 0.2846,0.0516 0.4753,0.1545 0.5729,0.3093 0.0975,0.1539 0.1145,0.4192 0.0504,0.7959 z m 1.6954,-2.753 -0.915,2.8993 0.3824,0.1281 2.1972,-1.7816 -0.7186,2.2763 0.3577,0.1199 0.915,-2.8999 -0.3824,-0.1275 -2.1977,1.7832 0.7189,-2.2784 z m 3.0379,1.1262 -1.2044,2.7851 0.3577,0.1641 1.2045,-2.785 z m 1.855,0.9737 -2.4395,2.0937 0.3719,0.2115 1.7153,-1.5526 c 0.1383,-0.1241 0.2616,-0.244 0.3708,-0.3586 -0.0377,0.1681 -0.0692,0.3399 -0.0953,0.5157 l -0.343,2.3363 0.3498,0.1995 0.421,-3.2448 z m 1.7887,1.1591 -1.8227,2.4024 1.6863,1.3572 0.2152,-0.2835 -1.3779,-1.1092 0.5581,-0.7355 1.2909,1.0386 0.2135,-0.2824 -1.2904,-1.038 0.6208,-0.8175 1.4324,1.1517 0.2148,-0.2832 z m 2.2286,1.95 -2.13,2.1174 0.9119,0.9726 c 0.1829,0.1953 0.3419,0.3246 0.4754,0.3889 0.1332,0.0632 0.277,0.0771 0.4314,0.0425 0.154,-0.036 0.2892,-0.1119 0.4062,-0.2287 0.1511,-0.1502 0.2314,-0.3271 0.2401,-0.5307 0.0097,-0.2038 -0.0705,-0.4254 -0.2395,-0.6638 0.108,0.0414 0.1979,0.0649 0.2702,0.07 0.1553,0.0093 0.3245,-0.0043 0.5093,-0.0408 l 0.9377,-0.1951 -0.3427,-0.3651 -0.7151,0.1511 c -0.2073,0.042 -0.3708,0.0695 -0.4902,0.0817 -0.1196,0.013 -0.2126,0.011 -0.2806,-0.0057 -0.0675,-0.0164 -0.1275,-0.0414 -0.1808,-0.0754 -0.0375,-0.0269 -0.0913,-0.0768 -0.1619,-0.1522 l -0.3152,-0.3368 0.9456,-0.9399 z m -0.9179,1.4728 0.5854,0.6237 c 0.1239,0.1329 0.2083,0.25 0.2511,0.3515 0.044,0.1012 0.0542,0.2001 0.0321,0.2976 -0.0219,0.0967 -0.0672,0.1792 -0.1364,0.2478 -0.1003,0.1003 -0.2182,0.1451 -0.354,0.1343 -0.1355,-0.0108 -0.2792,-0.0975 -0.4317,-0.2605 l -0.6512,-0.6933 z m 2.1889,1.4015 0.1911,0.3277 c 0.1304,-0.0754 0.252,-0.1145 0.3665,-0.1191 0.1151,-0.0039 0.2353,0.0326 0.3617,0.1086 0.1262,0.0768 0.239,0.1854 0.3376,0.3257 0.0879,0.1244 0.1471,0.2477 0.1792,0.3699 0.0309,0.1219 0.032,0.2299 0.0025,0.3234 -0.0303,0.0942 -0.0819,0.1681 -0.1559,0.2234 -0.0754,0.0564 -0.1559,0.0831 -0.2443,0.08 -0.0885,-0.0029 -0.1874,-0.042 -0.2979,-0.1163 -0.072,-0.0479 -0.2141,-0.1647 -0.4269,-0.3517 -0.2126,-0.1868 -0.3745,-0.3087 -0.4853,-0.3643 -0.1426,-0.0734 -0.2795,-0.1049 -0.4094,-0.0972 -0.1287,0.0093 -0.2486,0.055 -0.3588,0.1372 -0.1208,0.0904 -0.2089,0.21 -0.2642,0.3594 -0.0553,0.1491 -0.0624,0.3127 -0.0213,0.489 0.042,0.176 0.1211,0.3472 0.2381,0.5131 0.1293,0.1834 0.2707,0.3228 0.4269,0.42 0.1557,0.0967 0.3155,0.1412 0.4799,0.1336 0.1636,-0.0085 0.3181,-0.0621 0.4629,-0.1613 l -0.1981,-0.3303 c -0.163,0.0964 -0.3186,0.1253 -0.4638,0.0859 -0.1462,-0.0391 -0.2854,-0.1533 -0.4189,-0.343 -0.1398,-0.1975 -0.2058,-0.3676 -0.1993,-0.5108 0.0065,-0.1428 0.0593,-0.2514 0.1579,-0.3254 0.0867,-0.0643 0.1803,-0.0856 0.2803,-0.0632 0.1004,0.0218 0.273,0.1426 0.5182,0.3645 0.2458,0.2217 0.4247,0.366 0.5378,0.4323 0.1661,0.095 0.3223,0.14 0.4688,0.1349 0.1468,-0.0051 0.2846,-0.0569 0.413,-0.1525 0.1276,-0.0952 0.2214,-0.2225 0.2806,-0.3821 0.0596,-0.1593 0.0712,-0.333 0.0349,-0.521 -0.0366,-0.1871 -0.1176,-0.369 -0.2415,-0.5451 -0.1579,-0.2228 -0.3212,-0.3869 -0.4907,-0.4895 -0.1695,-0.1043 -0.3478,-0.152 -0.5357,-0.1429 -0.1868,0.0096 -0.3629,0.0717 -0.5259,0.1871 z m 2.452,2.1263 -2.5645,1.5247 0.1956,0.3492 2.5645,-1.5244 z m 0.9108,1.8918 -2.3664,1.1367 -0.4127,-0.9102 -0.3166,0.1522 0.9921,2.1898 0.3166,-0.1522 -0.4138,-0.9142 2.3666,-1.1361 z m 0.9414,2.9092 -1.2053,0.3563 -1.9554,-0.6454 0.1313,0.4719 1.019,0.3243 c 0.1902,0.059 0.3782,0.1106 0.5653,0.1554 -0.1253,0.1315 -0.2628,0.288 -0.4147,0.4682 l -0.6787,0.8147 0.1259,0.4519 1.3156,-1.6541 1.2053,-0.3554 z"
       style="fill:#231916;fill-opacity:1;fill-rule:evenodd;stroke:none"
       id="path30" />
    <path
       d="m 24.7292,38.3956 h -0.4845 v 3.181 c -0.1173,-0.114 -0.2698,-0.229 -0.4592,-0.3436 -0.1902,-0.1145 -0.3603,-0.2007 -0.5114,-0.2576 v 0.4819 c 0.271,0.1318 0.5089,0.2908 0.7121,0.4776 0.2021,0.1877 0.3467,0.3679 0.4312,0.544 h 0.3118 z m 1.6214,0.9396 0.4666,0.0445 c 0.0391,-0.225 0.1148,-0.3889 0.2256,-0.4912 0.1117,-0.1009 0.254,-0.1522 0.4286,-0.1522 0.1491,0 0.2795,0.0346 0.392,0.1057 0.1123,0.0697 0.2041,0.1639 0.2758,0.2812 0.0723,0.1174 0.1324,0.2764 0.1812,0.4757 0.0476,0.1995 0.0725,0.4031 0.0725,0.6105 0,0.0219 -8e-4,0.0562 -0.0025,0.0993 -0.0981,-0.1582 -0.2302,-0.2875 -0.3974,-0.3858 -0.1684,-0.0998 -0.3504,-0.1491 -0.5451,-0.1491 -0.3277,0 -0.6047,0.1221 -0.8303,0.3665 -0.2265,0.2443 -0.3399,0.5652 -0.3399,0.9649 0,0.4127 0.118,0.7444 0.3544,0.9964 0.2364,0.2514 0.5323,0.3773 0.8883,0.3773 0.2563,0 0.491,-0.0715 0.7042,-0.2138 0.2126,-0.142 0.3741,-0.3455 0.4847,-0.6091 0.1103,-0.2628 0.1653,-0.6446 0.1653,-1.1444 0,-0.519 -0.0539,-0.9329 -0.1639,-1.241 -0.11,-0.3081 -0.2727,-0.542 -0.4887,-0.703 -0.2171,-0.161 -0.4703,-0.2415 -0.7617,-0.2415 -0.3086,0 -0.5606,0.0879 -0.7565,0.2653 -0.1959,0.1761 -0.3138,0.4241 -0.3532,0.7438 z m 1.9854,1.7955 c 0,0.286 -0.0732,0.5142 -0.2217,0.682 -0.1491,0.1678 -0.3268,0.2529 -0.5355,0.2529 -0.2148,0 -0.4025,-0.091 -0.5626,-0.2722 -0.1599,-0.1817 -0.2396,-0.4164 -0.2396,-0.7044 0,-0.2593 0.076,-0.4699 0.2279,-0.631 0.1517,-0.1621 0.3382,-0.2432 0.561,-0.2432 0.2251,0 0.4091,0.0811 0.5533,0.2432 0.1457,0.1611 0.2172,0.3858 0.2172,0.6727 z m 1.3172,-0.7299 c 0,0.4807 0.0479,0.8682 0.1443,1.1608 0.0955,0.2939 0.239,0.5198 0.4289,0.6789 0.1888,0.159 0.4272,0.2384 0.7146,0.2384 0.2118,0 0.3977,-0.0443 0.5579,-0.1324 0.1601,-0.0868 0.2914,-0.2137 0.396,-0.3796 0.104,-0.1655 0.1859,-0.3673 0.2452,-0.6049 0.0595,-0.2381 0.089,-0.5576 0.089,-0.9612 0,-0.4774 -0.0479,-0.8615 -0.1429,-1.1551 -0.0952,-0.2934 -0.2378,-0.5196 -0.4272,-0.6801 -0.1896,-0.1598 -0.4286,-0.2395 -0.718,-0.2395 -0.3815,0 -0.68,0.1406 -0.8972,0.4215 -0.2602,0.3379 -0.3906,0.8898 -0.3906,1.6532 z m 0.4984,0 c 0,-0.6673 0.0765,-1.1115 0.2281,-1.3331 0.1514,-0.2206 0.3388,-0.3314 0.5613,-0.3314 0.2231,0 0.4096,0.1114 0.5616,0.3331 0.1516,0.2216 0.2281,0.6658 0.2281,1.3314 0,0.6692 -0.0765,1.1146 -0.2281,1.334 -0.152,0.2208 -0.3402,0.3308 -0.5667,0.3308 -0.2234,0 -0.4011,-0.0978 -0.5343,-0.2917 -0.1664,-0.2472 -0.25,-0.7058 -0.25,-1.3731 z m 4.7032,-2.0052 h -0.4847 v 3.181 c -0.1168,-0.114 -0.2693,-0.229 -0.459,-0.3436 -0.1899,-0.1145 -0.3602,-0.2007 -0.511,-0.2576 v 0.4819 c 0.2712,0.1318 0.5082,0.2908 0.7117,0.4776 0.2024,0.1877 0.3462,0.3679 0.4318,0.544 h 0.3112 z"
       style="fill:#231916;fill-opacity:1;fill-rule:evenodd;stroke:none"
       id="path32" />
  </g>
</svg>
