<?xml version="1.0" encoding="UTF-8" standalone="no"?>
<!-- Created with Inkscape (http://www.inkscape.org/) -->

<svg
   version="1.1"
   id="svg2"
   width="1122.52"
   height="793.70667"
   viewBox="0 0 1122.52 793.70667"
   sodipodi:docname="校徽.svg"
   inkscape:version="1.2.2 (b0a8486541, 2022-12-01)"
   xmlns:inkscape="http://www.inkscape.org/namespaces/inkscape"
   xmlns:sodipodi="http://sodipodi.sourceforge.net/DTD/sodipodi-0.dtd"
   xmlns="http://www.w3.org/2000/svg"
   xmlns:svg="http://www.w3.org/2000/svg">
  <defs
     id="defs6">
    <clipPath
       clipPathUnits="userSpaceOnUse"
       id="clipPath24">
      <path
         d="M 0,0 H 842 V 596 H 0 Z"
         id="path22" />
    </clipPath>
  </defs>
  <sodipodi:namedview
     id="namedview4"
     pagecolor="#ffffff"
     bordercolor="#000000"
     borderopacity="0.25"
     inkscape:showpageshadow="2"
     inkscape:pageopacity="0.0"
     inkscape:pagecheckerboard="0"
     inkscape:deskcolor="#d1d1d1"
     showgrid="false"
     inkscape:zoom="1.2838496"
     inkscape:cx="561.59226"
     inkscape:cy="399.19006"
     inkscape:window-width="2560"
     inkscape:window-height="1284"
     inkscape:window-x="0"
     inkscape:window-y="0"
     inkscape:window-maximized="1"
     inkscape:current-layer="g10">
    <inkscape:page
       x="0"
       y="0"
       id="page8"
       width="1122.52"
       height="793.70667" />
  </sodipodi:namedview>
  <g
     id="g10"
     inkscape:groupmode="layer"
     inkscape:label="Page 1"
     transform="matrix(1.3333333,0,0,1.3333333,0,1.9842666e-5)">
    <g
       id="g12" />
    <g
       id="g14"
       style="fill:#000000"
       transform="matrix(1.8319606,0,0,1.6529662,-387.7458,-172.91786)">
      <g
         id="g16"
         style="fill:#000000">
        <g
           id="g18"
           style="fill:#000000">
          <g
             id="g20"
             clip-path="url(#clipPath24)"
             style="fill:#000000">
            <g
               id="g26"
               style="fill:#000000">
              <path
                 d="m 441.68,435.109 c -83.91,0 -151.93,-67.828 -151.93,-151.492 0,-83.683 68.02,-151.512 151.93,-151.512 83.941,0 151.941,67.829 151.941,151.512 0,83.664 -68,151.492 -151.941,151.492 m 0,-308.504 c -86.969,0 -157.461,70.282 -157.461,157.012 0,86.731 70.492,156.988 157.461,156.988 86.976,0 157.472,-70.257 157.472,-156.988 0,-86.73 -70.496,-157.012 -157.472,-157.012"
                 style="fill:#000000;fill-opacity:1;fill-rule:evenodd;stroke:none"
                 id="path28" />
              <path
                 d="m 422.66,412.93 0.516,-3.364 8.867,1.301 -1.227,7.934 c -0.972,0.687 -2.347,1.226 -4.078,1.597 -1.722,0.364 -3.41,0.434 -5.093,0.18 -2.141,-0.297 -3.922,-1.012 -5.352,-2.117 -1.473,-1.102 -2.469,-2.527 -3.012,-4.273 -0.535,-1.739 -0.652,-3.543 -0.371,-5.469 0.344,-2.071 1.063,-3.832 2.207,-5.309 1.125,-1.488 2.621,-2.515 4.461,-3.144 1.414,-0.446 3.082,-0.539 5.031,-0.254 2.532,0.375 4.426,1.176 5.664,2.426 1.274,1.238 1.965,2.785 2.094,4.687 l -4.215,0.117 c -0.136,-1.008 -0.57,-1.851 -1.257,-2.519 -0.7,-0.688 -1.629,-1.129 -2.817,-1.305 -1.781,-0.242 -3.308,0.102 -4.547,1.047 -1.215,0.965 -2.008,2.555 -2.359,4.726 -0.34,2.356 -0.098,4.211 0.801,5.551 0.879,1.34 2.207,2.153 3.957,2.395 0.836,0.125 1.715,0.078 2.636,-0.11 0.926,-0.234 1.707,-0.5 2.422,-0.875 l 0.379,-2.535 z"
                 style="fill:#000000;fill-opacity:1;fill-rule:nonzero;stroke:none"
                 id="path30" />
              <path
                 d="m 388.969,411.766 6.824,-18.911 3.816,1.286 3.391,15.355 4.566,-12.629 3.645,1.235 -6.816,18.925 -3.957,-1.343 -3.352,-15.094 -4.488,12.426 z"
                 style="fill:#000000;fill-opacity:1;fill-rule:nonzero;stroke:none"
                 id="path32" />
              <path
                 d="m 330.793,367.934 15.676,-13.043 2.617,2.984 -4.969,14.949 10.453,-8.722 2.516,2.871 -15.668,13.039 -2.691,-3.09 4.855,-14.664 -10.27,8.519 z"
                 style="fill:#000000;fill-opacity:1;fill-rule:nonzero;stroke:none"
                 id="path34" />
              <path
                 d="m 368.742,398.59 c 0.578,2.469 2.176,4.488 4.805,6.019 2.601,1.516 5.16,1.953 7.68,1.286 2.507,-0.649 4.632,-2.368 6.351,-5.153 1.738,-2.804 2.32,-5.445 1.738,-7.933 -0.601,-2.477 -2.203,-4.489 -4.789,-6.024 -1.429,-0.855 -2.843,-1.351 -4.23,-1.558 -1.027,-0.129 -2.098,-0.063 -3.238,0.226 -1.133,0.281 -2.164,0.75 -3.106,1.406 -1.269,0.868 -2.453,2.153 -3.547,3.918 -1.683,2.735 -2.234,5.344 -1.664,7.813 m 9.528,-9.422 c 1.507,-0.453 2.996,-0.246 4.468,0.609 1.461,0.86 2.336,2.039 2.614,3.532 0.285,1.503 -0.18,3.23 -1.391,5.195 -1.246,2 -2.625,3.23 -4.168,3.691 -1.523,0.473 -3,0.266 -4.422,-0.539 -1.41,-0.847 -2.285,-2.051 -2.57,-3.586 -0.285,-1.531 0.164,-3.297 1.359,-5.258 1.227,-1.976 2.602,-3.183 4.11,-3.644"
                 style="fill:#000000;fill-opacity:1;fill-rule:nonzero;stroke:none"
                 id="path36" />
              <path
                 d="m 346.902,385.223 5.953,4.922 c 1.172,0.949 2.204,1.613 3.086,1.996 1.204,0.488 2.297,0.668 3.305,0.605 1.324,-0.109 2.66,-0.543 4.024,-1.332 1.117,-0.641 2.218,-1.59 3.32,-2.848 1.242,-1.437 2.117,-2.789 2.629,-4.035 0.511,-1.258 0.746,-2.508 0.656,-3.715 -0.063,-1.238 -0.457,-2.355 -1.133,-3.394 -0.512,-0.746 -1.414,-1.652 -2.73,-2.731 l -5.782,-4.773 z m 15.664,-8.938 c 1.286,1.09 2.106,1.844 2.473,2.313 0.484,0.593 0.746,1.25 0.836,1.918 0.074,0.672 -0.055,1.398 -0.398,2.222 -0.321,0.805 -1.004,1.793 -2.043,2.989 -1.047,1.191 -1.95,2.015 -2.75,2.539 -0.805,0.507 -1.528,0.746 -2.106,0.785 -0.609,0.051 -1.211,-0.129 -1.836,-0.43 -0.472,-0.211 -1.164,-0.699 -2.047,-1.402 l -2.34,-1.965 8.793,-10.117 z"
                 style="fill:#000000;fill-opacity:1;fill-rule:nonzero;stroke:none"
                 id="path38" />
              <path
                 d="m 341.375,346.527 -2.18,-3.726 -21.883,3.137 2.18,3.738 4.938,-0.84 4.078,7.008 -3.199,3.777 2.214,3.777 z m -13.277,1.715 8.011,-1.312 -5.226,6.09 z"
                 style="fill:#000000;fill-opacity:1;fill-rule:nonzero;stroke:none"
                 id="path40" />
              <path
                 d="m 309.328,325.926 19.379,-6.836 1.414,3.828 -7.644,2.695 2.765,7.414 7.645,-2.687 1.422,3.828 -19.356,6.812 -1.441,-3.792 8.457,-2.989 -2.762,-7.422 -8.449,2.973 z"
                 style="fill:#000000;fill-opacity:1;fill-rule:nonzero;stroke:none"
                 id="path42" />
              <path
                 d="m 310.887,302.102 1.113,3.793 c -1.285,0.472 -2.203,1.121 -2.68,1.953 -0.511,0.812 -0.621,1.84 -0.41,3.043 0.246,1.265 0.699,2.203 1.387,2.765 0.672,0.532 1.391,0.75 2.125,0.594 0.488,-0.086 0.879,-0.277 1.164,-0.594 0.281,-0.347 0.488,-0.894 0.617,-1.605 0.07,-0.492 0.164,-1.613 0.281,-3.324 0.153,-2.235 0.551,-3.832 1.176,-4.836 0.899,-1.395 2.125,-2.243 3.735,-2.543 1.046,-0.18 2.07,-0.067 3.074,0.336 0.996,0.421 1.836,1.109 2.508,2.109 0.668,0.969 1.148,2.23 1.414,3.742 0.464,2.473 0.242,4.434 -0.625,5.879 -0.875,1.461 -2.25,2.352 -4.098,2.758 l -0.891,-3.965 c 1.004,-0.355 1.672,-0.848 2.028,-1.5 0.343,-0.621 0.418,-1.492 0.222,-2.605 -0.222,-1.161 -0.632,-2 -1.242,-2.575 -0.398,-0.363 -0.84,-0.496 -1.367,-0.402 -0.492,0.074 -0.856,0.348 -1.125,0.785 -0.344,0.606 -0.555,1.899 -0.68,3.906 -0.117,2.016 -0.328,3.524 -0.683,4.559 -0.313,1.004 -0.868,1.852 -1.649,2.52 -0.765,0.695 -1.808,1.14 -3.093,1.351 -1.157,0.219 -2.301,0.094 -3.454,-0.348 -1.125,-0.457 -2.05,-1.203 -2.742,-2.3 -0.719,-1.032 -1.238,-2.418 -1.554,-4.145 -0.473,-2.484 -0.235,-4.484 0.707,-6.043 0.945,-1.543 2.523,-2.637 4.742,-3.308"
                 style="fill:#000000;fill-opacity:1;fill-rule:nonzero;stroke:none"
                 id="path44" />
              <path
                 d="m 445.789,401.98 4.141,-0.351 0.976,10.82 c 0.156,1.742 0.301,2.84 0.453,3.344 0.243,0.785 0.743,1.422 1.442,1.867 0.699,0.41 1.633,0.602 2.777,0.508 1.145,-0.098 2.008,-0.414 2.559,-0.945 0.551,-0.5 0.855,-1.11 0.906,-1.789 0.074,-0.707 0.019,-1.852 -0.113,-3.426 l -0.992,-11.074 4.152,-0.352 0.937,10.512 c 0.227,2.41 0.262,4.101 0.125,5.101 -0.125,1.02 -0.457,1.875 -0.996,2.617 -0.551,0.747 -1.301,1.364 -2.273,1.848 -0.965,0.488 -2.246,0.817 -3.883,0.953 -1.941,0.172 -3.441,0.047 -4.508,-0.293 -1.035,-0.355 -1.898,-0.863 -2.539,-1.531 -0.644,-0.644 -1.105,-1.348 -1.363,-2.109 -0.363,-1.114 -0.664,-2.789 -0.86,-5.035 z"
                 style="fill:#000000;fill-opacity:1;fill-rule:nonzero;stroke:none"
                 id="path46" />
              <path
                 d="m 471.816,419.145 -5.64,-19.325 3.875,-1.047 11.91,10.633 -3.781,-12.867 3.711,-1.023 5.632,19.281 -4.011,1.098 -11.684,-10.461 3.688,12.668 z"
                 style="fill:#000000;fill-opacity:1;fill-rule:nonzero;stroke:none"
                 id="path48" />
              <path
                 d="m 493.789,412.223 -7.82,-18.559 3.855,-1.551 7.832,18.555 z"
                 style="fill:#000000;fill-opacity:1;fill-rule:nonzero;stroke:none"
                 id="path50" />
              <path
                 d="m 508.156,405.836 -16.465,-14.02 3.938,-2.125 11.988,10.489 -3.062,-15.356 3.879,-2.09 3.656,20.957 z"
                 style="fill:#000000;fill-opacity:1;fill-rule:nonzero;stroke:none"
                 id="path52" />
              <path
                 d="m 522.809,397.102 -12.832,-15.715 11.941,-9.242 2.195,2.667 -8.718,6.708 2.847,3.488 8.106,-6.238 2.16,2.636 -8.07,6.278 3.453,4.218 8.988,-6.933 2.183,2.617 z"
                 style="fill:#000000;fill-opacity:1;fill-rule:nonzero;stroke:none"
                 id="path54" />
              <path
                 d="m 542.781,380.09 -6.324,-5.66 0.559,-0.598 c 0.652,-0.699 1.195,-1.125 1.593,-1.363 0.418,-0.196 0.895,-0.324 1.477,-0.324 0.578,-0.012 1.801,0.128 3.715,0.406 l 5.308,0.797 3.36,-3.547 -4.637,-0.84 c -1.867,-0.344 -3.207,-0.508 -4.078,-0.508 -0.852,0 -1.762,0.164 -2.777,0.461 1.039,-1.457 1.496,-2.863 1.347,-4.176 -0.125,-1.3 -0.762,-2.476 -1.898,-3.496 -0.906,-0.82 -1.906,-1.297 -3.004,-1.5 -1.113,-0.195 -2.117,-0.054 -3.09,0.434 -0.941,0.472 -2.141,1.488 -3.637,3.062 l -5.922,6.278 15.184,13.535 z m -12.605,-11.266 2.168,-2.312 c 1.144,-1.196 1.847,-1.918 2.117,-2.137 0.527,-0.391 1.09,-0.586 1.652,-0.586 0.559,0.008 1.094,0.262 1.598,0.715 0.457,0.414 0.754,0.855 0.855,1.332 0.122,0.473 0.082,0.941 -0.128,1.387 -0.215,0.488 -0.981,1.425 -2.325,2.851 l -2.074,2.199 z"
                 style="fill:#000000;fill-opacity:1;fill-rule:nonzero;stroke:none"
                 id="path56" />
              <path
                 d="m 549.293,362.562 1.93,-3.484 c 1.265,0.543 2.379,0.668 3.32,0.402 0.937,-0.257 1.742,-0.894 2.453,-1.933 0.738,-1.047 1.078,-2.024 0.961,-2.879 -0.078,-0.856 -0.445,-1.5 -1.062,-1.898 -0.418,-0.266 -0.833,-0.364 -1.305,-0.34 -0.43,0.054 -0.953,0.3 -1.57,0.715 -0.403,0.316 -1.274,1.031 -2.582,2.199 -1.688,1.5 -3.141,2.394 -4.301,2.703 -1.645,0.379 -3.141,0.144 -4.496,-0.719 -0.868,-0.578 -1.524,-1.332 -1.965,-2.301 -0.399,-0.976 -0.528,-2.043 -0.305,-3.215 0.242,-1.144 0.785,-2.371 1.652,-3.671 1.43,-2.079 2.973,-3.336 4.657,-3.778 1.675,-0.445 3.297,-0.191 4.918,0.762 l -2.184,3.48 c -0.98,-0.425 -1.816,-0.523 -2.523,-0.335 -0.727,0.246 -1.399,0.839 -2.028,1.753 -0.668,0.985 -1.008,1.887 -0.968,2.707 0.039,0.508 0.261,0.907 0.703,1.208 0.398,0.257 0.863,0.328 1.375,0.16 0.664,-0.16 1.746,-0.953 3.285,-2.325 1.515,-1.367 2.762,-2.316 3.722,-2.832 0.961,-0.5 1.958,-0.718 3.004,-0.679 1.039,0.043 2.094,0.414 3.196,1.086 0.972,0.672 1.715,1.55 2.222,2.621 0.496,1.09 0.61,2.25 0.368,3.492 -0.247,1.234 -0.875,2.586 -1.868,4.043 -1.441,2.098 -3.05,3.394 -4.832,3.859 -1.769,0.512 -3.687,0.239 -5.777,-0.801"
                 style="fill:#000000;fill-opacity:1;fill-rule:nonzero;stroke:none"
                 id="path58" />
              <path
                 d="m 566.793,347.199 -18.602,-8.656 1.801,-3.652 18.598,8.64 z"
                 style="fill:#000000;fill-opacity:1;fill-rule:nonzero;stroke:none"
                 id="path60" />
              <path
                 d="m 572.664,333.66 -16.144,-5.504 -2.024,5.637 -3.289,-1.145 5.383,-14.992 3.293,1.114 -1.992,5.55 16.156,5.512 z"
                 style="fill:#000000;fill-opacity:1;fill-rule:nonzero;stroke:none"
                 id="path62" />
              <path
                 d="m 578.582,313.457 -8.527,-1.559 -13.102,5.122 0.891,-4.657 8.91,-3.195 -7.152,-6.016 0.875,-4.593 10.378,9.355 8.485,1.551 z"
                 style="fill:#000000;fill-opacity:1;fill-rule:nonzero;stroke:none"
                 id="path64" />
              <path
                 d="m 441.109,385.402 c -38.703,0 -72.492,-20.679 -90.523,-51.464 H 531.68 c -18.067,30.785 -51.84,51.464 -90.571,51.464 m 0,-205.437 c 57.68,0 104.453,46.012 104.453,102.734 0,16.598 -4,32.262 -11.097,46.156 H 347.848 v 0.086 c -7.145,-13.925 -11.184,-29.605 -11.184,-46.242 0,-56.722 46.766,-102.734 104.445,-102.734 m 0,-4.281 c -60.074,0 -108.812,47.906 -108.812,107.015 0,59.113 48.738,107.02 108.812,107.02 60.106,0 108.821,-47.907 108.821,-107.02 0,-59.109 -48.715,-107.015 -108.821,-107.015"
                 style="fill:#000000;fill-opacity:1;fill-rule:nonzero;stroke:none"
                 id="path66" />
              <path
                 d="m 446.422,260.895 -2.262,-15.84 -5.887,-0.196 -2.253,16.036 -16.739,-0.883 22.168,-45.453 25.778,55.906 -19.672,0.449 7.687,-9.793 z m -40.246,-1.11 -15.586,-0.68 8.801,-17.359 10.175,10.242 z m 77.09,-18.515 13.574,28.093 -15.836,0.879 -8.356,-18.254 z m 48.843,63.734 c -14.695,11.34 -26.445,-1.797 -26.445,-1.797 -19.453,18.063 -35.039,0.902 -35.039,0.902 -12.223,8.692 -17.637,6.903 -17.637,6.903 l -4.086,-29.414 23.985,-0.215 4.289,9.59 h 13.797 l -4.313,-9.375 h 16.274 l 4.093,9.586 14.012,-0.657 -3.84,-8.695 h 11.985 l 0.222,-13.359 -19.215,0.437 -23.98,-47.461 -18.758,19.613 -26.004,-52.355 -26.457,52.355 -18.527,-19.613 -18.996,37.887 -24.203,-0.68 -0.211,13.821 17.629,-0.676 -7.696,16.488 h 13.336 l 7.914,-16.488 16.282,-0.43 -7.454,16.918 h 13.563 l 7.695,-16.918 20.567,0.223 -7.012,9.574 5.672,0.215 -3.645,29.39 c -6.769,1.59 -17.172,-6.898 -17.172,-6.898 -19.445,17.395 -36.172,-0.668 -36.172,-0.668 -12.199,13.383 -26.453,2 -26.453,2 l -3.394,8.043 c 15.836,10.023 30.058,0.656 30.058,0.656 20.125,12.699 35.961,0.875 35.961,0.875 19.883,12.496 28.262,0.473 28.262,0.473 13.117,11.574 29.176,-0.688 29.176,-0.688 16.039,12.496 35.027,-0.429 35.027,-0.429 16.063,9.57 30.543,-0.668 30.543,-0.668 z"
                 style="fill:#000000;fill-opacity:1;fill-rule:nonzero;stroke:none"
                 id="path68" />
              <path
                 d="m 319.711,232.457 c 0,0 0.707,0.621 1.234,-0.09 0,0 0.367,-2.722 -0.875,-4.09 0,0 -3.461,-4.793 -4.148,-7.316 0,0 -0.887,-1.145 -5.387,-1.145 0,0 -0.629,1.047 -0.199,1.414 0.457,0.325 2.035,-0.187 3.715,2.86 l 4.32,5.668 c 0,0 1.43,1.566 1.34,2.699"
                 style="fill:#000000;fill-opacity:1;fill-rule:nonzero;stroke:none"
                 id="path70" />
              <path
                 d="m 333.863,224.613 -4.961,-0.429 c 0,0 -1.765,0.593 -0.343,1.558 0,0 2.632,5.153 1.668,8.102 0,0 0.882,1.488 1.418,-0.617 0,0 1.406,-5.571 2.652,-6.434 0,0 0.965,-1.723 -0.434,-2.18"
                 style="fill:#000000;fill-opacity:1;fill-rule:nonzero;stroke:none"
                 id="path72" />
              <path
                 d="m 324.762,231.66 c 0,0 -0.457,-1.469 -1.266,-0.176 0,0 0.465,4.985 -0.777,6.641 0,0 -0.086,4.789 -0.629,6.09 0,0 -0.778,3.051 -0.613,3.746 h -0.532 c 0,0 -2.648,-7.063 -6.086,-5.676 0,0 -0.25,0.699 0.532,1.313 0,0 3.726,6.875 3.183,8.797 0,0 2.453,0.621 4.68,0.519 0,0 2.566,-6.176 2.906,-8.445 0,0 0.254,-4.188 -0.09,-5.574 0,0 -0.527,-5.122 -1.308,-7.235"
                 style="fill:#000000;fill-opacity:1;fill-rule:nonzero;stroke:none"
                 id="path74" />
              <path
                 d="m 578.359,236.297 c 0,0 0.489,-0.16 0.926,0.344 l 1.238,1.152 c 0,0 -3.433,-0.231 -2.164,-1.496 m -28.668,5.973 c -4.625,0.07 -2.957,-6.778 -2.957,-6.778 0,-3.469 3.442,1.149 3.442,1.149 l 2.609,3.472 c 2.004,3.075 -3.094,2.157 -3.094,2.157 m 33.704,-4.477 -0.93,-0.41 -2.52,-2.149 c 0,0 -1.933,0.418 -1.586,-2.39 0,0 -0.171,-0.906 -1.761,-0.739 l -4.782,-3.558 c 0,0 -1.507,-1.145 1.157,-2.055 0,0 2.031,-0.82 -1,-0.984 0,0 -3.336,0.402 -3.758,1.222 0,0 -0.348,2.719 2.004,2.563 0,0 4.441,3.055 5.203,3.551 0,0 -0.84,2.39 -0.258,3.218 0,0 -0.25,0.985 -2.508,-0.57 0,0 -10.808,-4.633 -11.23,-6.367 0,0 -2.285,-0.414 -3.352,0.484 0,0 -0.176,2.168 0.403,2.575 l 3.277,2.148 c 0,0 -1.332,0.664 -4.184,-0.25 0,0 -2.781,0.434 -0.925,2.719 0,0 1.429,2.824 -0.598,3.992 0,0 0.082,-5.395 -8.141,-12.16 0,0 -2.594,0.078 -3.844,11.644 0,0 -0.523,4.641 4.778,4.301 l 4.113,-0.676 c 0,0 0.418,-0.648 0.934,0.418 l -0.192,2.817 c 0,0 -1.336,0.992 0.246,1.468 0,0 1.524,2.583 2.536,-0.984 l -0.192,-5.035 c 0,0 3.203,0.508 2.703,-5.203 l 7.047,0.41 c 0,0 2.012,-1.551 -1.43,-4.027 0,0 3.848,1.886 4.946,3.203 0,0 0.179,0.664 2.101,0.593 0,0 0.407,0.973 3.836,1.633 0,0 0.258,1.735 7.907,2.145 0,0 0.992,-2.371 0,-3.547"
                 style="fill:#000000;fill-opacity:1;fill-rule:nonzero;stroke:none"
                 id="path76" />
              <path
                 d="m 385.453,173.281 -1.254,1.996 -1.101,-5.949 c -0.336,-1.906 1.101,-3.555 1.101,-3.555 0.739,1.575 1.086,4.809 1.086,4.809 0.231,1.629 0.168,2.699 0.168,2.699 m 4.449,1.43 c 0,0 -1.445,-1.43 0.078,-6.965 l -1.097,-1.394 -0.086,-1.071 -1.172,-0.261 c 0,0 -0.832,-1.567 -2.523,-0.743 0,0 -1.086,0.262 0.351,-1.73 l 2.848,-4.445 -0.34,-5.622 c 0,0 0.184,-1.085 -1.754,-0.832 0,0 0.418,1.086 -0.414,2.137 -0.855,1.067 -1.777,3.235 -2.109,4.461 0,0 -0.586,-5.191 -0.922,-6.25 l -1.239,-1.75 c 0,0 -1.761,-0.98 -0.437,2 v 11.316 l -2.137,2.958 c 0,0 -3.09,0.789 -0.777,2.273 l 3.351,0.699 0.258,7.305 -0.031,2.047 2.699,0.418 2.313,-3.434 c 0,0 0.406,-0.226 0.633,0.516 l 0.414,3.117 c 0,0 -1.016,3.242 -1.844,3.574 0,0 -0.344,0.176 -1.27,1.078 0,0 -2.527,3.309 1.344,3.309 0,0 1.492,0.59 1.68,-1.649 l 0.242,-2.898 5.793,1.078 c 0,0 0.336,-1.574 -0.938,-3.48 z"
                 style="fill:#000000;fill-opacity:1;fill-rule:nonzero;stroke:none"
                 id="path78" />
              <path
                 d="m 395.523,174.5 -3.296,0.613 c 0,0 -2.137,1.153 0.152,1.356 0,0 2.215,0.719 3.34,1.687 0,0 1.535,2.008 2.219,-0.468 v -1.719 c 0,0 -0.126,-1.594 -2.415,-1.469"
                 style="fill:#000000;fill-opacity:1;fill-rule:nonzero;stroke:none"
                 id="path80" />
              <path
                 d="m 409.301,350.785 -2.379,1.891 -1.66,-2.309 5.191,-4.031 1.813,0.953 v 20.293 h -2.965 z"
                 style="fill:#000000;fill-opacity:1;fill-rule:nonzero;stroke:none"
                 id="path82" />
              <path
                 d="m 471.191,350.785 -2.402,1.891 -1.656,-2.309 5.219,-4.031 1.808,0.953 v 20.293 h -2.969 z"
                 style="fill:#000000;fill-opacity:1;fill-rule:nonzero;stroke:none"
                 id="path84" />
              <path
                 d="m 433.289,360.207 c 0,0.508 -0.051,1.016 -0.152,1.516 -0.121,0.543 -0.262,0.98 -0.453,1.379 -0.2,0.39 -0.5,0.714 -0.891,1.003 -0.391,0.27 -0.871,0.469 -1.426,0.571 -0.566,0.086 -1.015,0.097 -1.383,0.086 -0.683,-0.024 -1.269,-0.168 -1.707,-0.473 -0.465,-0.309 -0.738,-0.613 -0.847,-0.984 -0.114,-0.309 -0.188,-0.664 -0.235,-1.016 l -2.984,0.051 0.297,1.234 c 0.062,0.457 0.289,1.02 0.648,1.614 0.356,0.597 0.774,1.082 1.27,1.421 0.484,0.368 1.097,0.614 1.812,0.813 0.731,0.203 1.528,0.277 2.414,0.254 0.743,0 1.457,-0.11 2.164,-0.309 0.719,-0.203 1.289,-0.449 1.754,-0.789 0.434,-0.344 0.825,-0.742 1.157,-1.168 0.343,-0.472 0.617,-1.015 0.804,-1.613 0.231,-0.574 0.371,-1.199 0.434,-1.848 0.055,-0.633 0.078,-1.476 0.078,-2.539 v -5.953 c 0,-1.051 -0.098,-1.996 -0.32,-2.789 -0.207,-0.73 -0.551,-1.453 -1.032,-2.078 -0.457,-0.633 -1.144,-1.18 -2.043,-1.66 -0.878,-0.457 -1.953,-0.731 -3.144,-0.688 -0.711,0.055 -1.442,0.18 -2.195,0.446 -0.805,0.242 -1.446,0.601 -1.993,1.035 -0.535,0.465 -0.961,1.007 -1.242,1.621 -0.277,0.613 -0.484,1.226 -0.566,1.824 -0.117,0.598 -0.18,1.238 -0.18,1.91 0,1.348 0.117,2.36 0.387,3.055 0.262,0.691 0.613,1.246 1.039,1.695 0.406,0.477 1.086,0.867 1.957,1.246 0.906,0.375 1.996,0.547 3.242,0.473 0.492,0 0.957,-0.055 1.414,-0.137 0.449,-0.09 0.832,-0.211 1.117,-0.336 0.282,-0.121 0.547,-0.246 0.805,-0.379 z m -0.105,-7.656 c 0.054,0.824 0.015,1.547 -0.153,2.144 -0.129,0.598 -0.383,1.106 -0.734,1.481 -0.344,0.41 -1.109,0.633 -2.266,0.648 -0.422,0.02 -0.906,-0.015 -1.433,-0.105 -0.524,-0.094 -0.981,-0.313 -1.344,-0.621 -0.359,-0.321 -0.613,-0.735 -0.785,-1.258 -0.153,-0.414 -0.219,-1.028 -0.203,-1.856 0,-0.812 0.082,-1.464 0.257,-1.925 0.18,-0.469 0.415,-0.832 0.715,-1.121 0.297,-0.262 0.649,-0.485 1.082,-0.633 0.414,-0.145 0.942,-0.211 1.59,-0.211 0.758,0.027 1.367,0.176 1.883,0.472 0.473,0.286 0.855,0.7 1.102,1.215 0.121,0.348 0.21,0.934 0.289,1.77"
                 style="fill:#000000;fill-opacity:1;fill-rule:nonzero;stroke:none"
                 id="path86" />
              <path
                 d="m 459.43,354.879 c -0.059,-0.918 -0.196,-1.844 -0.387,-2.77 -0.176,-0.859 -0.512,-1.703 -0.938,-2.476 -0.46,-0.797 -1.007,-1.445 -1.632,-1.969 -0.649,-0.547 -1.325,-0.93 -2.047,-1.172 -0.719,-0.293 -1.418,-0.394 -2.082,-0.418 -0.918,0 -1.805,0.18 -2.637,0.617 -0.84,0.395 -1.496,0.911 -2.016,1.489 -0.492,0.574 -0.933,1.261 -1.285,2.05 -0.359,0.797 -0.617,1.633 -0.804,2.571 -0.184,0.929 -0.282,1.758 -0.309,2.492 -0.023,0.551 -0.039,1.445 -0.023,2.648 0.015,1.204 0.089,2.239 0.257,3.09 0.172,0.836 0.422,1.672 0.758,2.481 0.332,0.812 0.781,1.535 1.344,2.199 0.582,0.625 1.277,1.121 2.117,1.449 0.852,0.317 1.715,0.485 2.598,0.485 0.922,0 1.746,-0.098 2.508,-0.379 0.75,-0.274 1.351,-0.594 1.851,-0.996 0.492,-0.399 0.91,-0.954 1.313,-1.661 0.398,-0.707 0.699,-1.425 0.894,-2.183 0.203,-0.746 0.363,-1.59 0.442,-2.516 0.078,-0.926 0.16,-1.621 0.168,-2.086 0.019,-1.027 0,-2.023 -0.09,-2.945 m -2.828,3.211 c -0.036,0.66 -0.102,1.457 -0.243,2.379 -0.156,0.914 -0.41,1.691 -0.785,2.355 -0.398,0.668 -0.847,1.196 -1.429,1.485 -0.586,0.3 -1.184,0.449 -1.844,0.429 -0.766,0 -1.391,-0.179 -1.918,-0.558 -0.516,-0.344 -0.949,-0.821 -1.293,-1.461 -0.348,-0.633 -0.602,-1.403 -0.758,-2.297 -0.16,-0.918 -0.246,-1.996 -0.273,-3.313 0,-0.773 0,-1.398 0.05,-1.91 0.043,-0.527 0.137,-1.191 0.313,-2 0.164,-0.793 0.402,-1.508 0.742,-2.172 0.316,-0.621 0.738,-1.125 1.293,-1.488 0.543,-0.363 1.176,-0.539 1.91,-0.539 0.723,0.012 1.324,0.215 1.832,0.566 0.489,0.336 0.918,0.801 1.258,1.375 0.379,0.551 0.637,1.254 0.832,2.079 0.191,0.832 0.305,1.89 0.348,3.25 0,0.55 -0.024,1.168 -0.035,1.82"
                 style="fill:#000000;fill-opacity:1;fill-rule:nonzero;stroke:none"
                 id="path88" />
              <path
                 d="m 503.328,163.391 3.113,0.199 3.883,-2.395 c 0,0 0.836,-0.3 -0.078,-1.527 0,0 -0.613,0.691 -1.699,0.523 -1.094,-0.168 -2.977,0.02 -4.004,0.254 l -0.027,0.043 -2.485,-0.277 c 0.821,-0.606 -0.703,-4.223 -0.703,-4.223 -0.793,-1.465 -1.621,-0.871 -1.621,-0.871 -0.988,0.695 -1.34,3.36 -1.34,3.36 l -0.887,1.347 -3.695,0.133 -4.015,-0.578 c 0,0 -2.5,-2.656 -2.75,0.449 l 0.765,2.504 c 0.027,0.449 0.153,0.813 0.336,1.109 l 0.031,0.11 0.032,-0.024 c 0.746,1.051 2.289,1.118 2.836,1.106 -1.137,0.187 -5.372,2.449 -5.372,2.449 -6.199,4.227 -14.609,4.434 -14.609,4.434 -2.668,0.73 0.379,1.476 0.379,1.476 2.703,0.61 12.828,-1.808 12.828,-1.808 14.52,-3.946 16.602,-7.965 16.602,-7.965 0.765,0.129 1.636,0.172 2.48,0.172"
                 style="fill:#000000;fill-opacity:1;fill-rule:nonzero;stroke:none"
                 id="path90" />
              <path
                 d="m 496.883,175.25 c 0,0 -1.25,-2.535 -2.102,0.309 0,0 -2.027,6.175 -4.453,6.492 0,0 -2.082,0.961 -0.219,1.41 0,0 4.575,-2.02 7.184,-2.09 0,0 2.551,-2.133 -0.41,-6.121"
                 style="fill:#000000;fill-opacity:1;fill-rule:nonzero;stroke:none"
                 id="path92" />
            </g>
          </g>
        </g>
      </g>
    </g>
  </g>
</svg>
